<svg xmlns="http://www.w3.org/2000/svg" viewBox="0 0 1247.2 153.1"><defs><style>.cls-1{isolation:isolate;}.cls-2{opacity:0.1;}.cls-3{mix-blend-mode:overlay;}.cls-4{fill:none;stroke:#fff;stroke-miterlimit:10;stroke-width:0.25px;}</style></defs><g class="cls-1"><g id="Layer_2" data-name="Layer 2"><g id="Layer_1-2" data-name="Layer 1"><g class="cls-2"><g class="cls-3"><path class="cls-4" d="M145.29,75.37s50.47-33.65,106-13.46,72.34,25.23,111,11.78,37-16.83,57.19-5,30.28,18.5,102.62-6.73S611.26,92.19,671.82,82.1s62.24-43.74,114.39-20.19,62.24,23.55,79.06,20.19S883.78,65.27,909,70.32s28.6,10.09,52.15,0,32-16.82,75.7,1.68,94.2-1.68,94.2-1.68"/><path class="cls-4" d="M1130.31,71s-50.46,17.62-94.76,1-53.11-10-77.38-1-27.4,4-52.39-.24-27.08,8.89-46.54,10.89-29.88,4.65-82.43-18.26-54.23,7.53-114.39,18.26S585.76,39.43,516.07,63.3s-79.38,16.82-99.81,5.85-19-7.53-56.95,4.8S304.92,81.16,250,62.82,144.55,75.55,144.55,75.55"/><path class="cls-4" d="M1129.56,71.66s-50.46,15.06-95.32.24-54.07-8.25-79.06-.4-27.88,3-52.63-.48-27.24,9.37-49.35,10S820.36,87,767.41,64.69,712.78,69.65,653,81,577.08,42.18,510,64.69s-76.34,15.14-97,5S393.56,63,356.32,74.22s-53.27,6-107.66-10.49-104.86,12-104.86,12"/><path class="cls-4" d="M1128.82,72.32s-50.47,12.5-95.89-.48-55-6.49-80.74.24-28.36,1.93-52.87-.72-27.4,9.86-52.15,9.13S811.36,87.7,758,66.08s-55,2.4-114.39,14.41S568.41,44.93,504,66.08s-73.29,13.45-94.2,4.08-19.95-5.77-56.47,4.33-52.15,4.8-106-9.86-104.3,11.3-104.3,11.3"/><path class="cls-4" d="M1128.07,73s-50.47,9.93-96.45-1.2-56-4.73-82.42.88-28.84.88-53.11-1S868.53,82,841.14,80s-38.78,8.49-92.53-12.5S693.18,67.3,634.23,80,559.73,47.68,498,67.46s-70.25,11.78-91.4,3.21-20.43-4.89-56.23,4.08-51,3.61-104.3-9.21S142.3,76.12,142.3,76.12"/><path class="cls-4" d="M1127.32,73.66s-50.46,7.37-97-1.92-57-3-84.11,1.52-29.32-.16-53.35-1.2-27.72,10.81-57.76,7.37-41.73,9.77-95.88-10.58-55.84-2.72-114.39,10.58-73.78-29-132.9-10.58-67.2,10.1-88.59,2.33-20.91-4-56,3.84-49.9,2.4-102.61-8.57S141.56,76.3,141.56,76.3"/><path class="cls-4" d="M1126.57,74.33s-50.46,4.8-97.56-2.65-57.92-1.2-85.8,2.17-29.79-1.21-53.59-1.45-27.87,11.3-60.55,6.49S784.37,90,729.82,70.24,673.58,65,615.43,78.89,542.37,53.18,485.9,70.24s-64.17,8.41-85.79,1.44-21.39-3.12-55.76,3.61-48.78,1.2-100.93-7.93-102.61,9.13-102.61,9.13"/><path class="cls-4" d="M1125.83,75s-50.47,2.25-98.13-3.36-58.88.56-87.48,2.8-30.28-2.24-53.83-1.68-28,11.78-63.36,5.61-47.66,12.33-102.61-6.73S663.78,63.78,606,78.36s-72.34-22.43-126.17-6.73-61.12,6.73-83,.56S375,70,341.36,75.55s-47.66,0-99.25-7.28-102.05,8.41-102.05,8.41"/><path class="cls-4" d="M1125.08,75.66s-50.47-.32-98.69-4.08S966.55,73.9,937.23,75s-30.76-3.28-54.07-1.92S855,85.35,817,77.82,766.37,91.44,711,73s-57-10.42-114.39,4.8S525,58.68,473.83,73s-58.08,5-80.19-.32-22.34-1.36-55.27,3.12-46.54-1.2-97.56-6.65-101.5,7.69-101.5,7.69"/><path class="cls-4" d="M1124.33,76.33s-50.47-2.88-99.25-4.81-60.8,4.09-90.84,4.09S903,71.28,879.93,73.45s-28.35,12.73-69,3.84-53.59,14.9-109.34-2.88-57.44-13-114.39,2.88-70.89-15.86-119.44-2.88-55,3.36-77.38-1.21-22.83-.48-55,2.89-45.42-2.4-95.88-6-100.93,7-100.93,7"/><path class="cls-4" d="M1123.58,77s-50.46-5.45-99.81-5.53S962,77.32,931.25,76.2s-31.72-5.37-54.55-2.41-28.52,13.22-71.77,3-56.56,16.18-112.71-1-57.83-15.54-114.39,1-70.17-12.58-116.07-1-52,1.69-74.58-2.08-23.31.4-54.79,2.65-44.3-3.61-94.2-5.37-100.37,6.25-100.37,6.25"/><path class="cls-4" d="M1122.84,77.66s-50.47-8-100.38-6.24-62.72,7.61-94.2,5.36-32.2-6.41-54.79-2.64-28.68,13.7-74.58,2.08-59.51,17.46-116.07,1-58.23-18.1-114.39-1-69.45-9.29-112.7,1-49,0-71.78-3-23.79,1.28-54.55,2.4-43.18-4.8-92.52-4.72-99.81,5.52-99.81,5.52"/><path class="cls-4" d="M1122.09,78.33s-50.47-10.57-100.93-7-63.69,9.37-95.89,6-32.68-7.45-55-2.88-28.84,14.18-77.38,1.2-62.48,18.74-119.44,2.88S614.79,57.9,559,75.69s-68.73-6-109.34,2.88-45.9-1.68-69-3.84-24.27,2.16-54.31,2.16-42.05-6-90.84-4.09-99.25,4.81-99.25,4.81"/><path class="cls-4" d="M1121.34,79s-50.47-13.14-101.49-7.69S955.2,82.44,922.28,78,889.12,69.47,867,74.83s-29,14.66-80.19.32S721.38,95.18,664,80s-59-23.23-114.39-4.81-68-2.72-106,4.81-42.86-3.36-66.17-4.73-24.75,3-54.07,1.93S282.49,70,234.26,73.71s-98.69,4.09-98.69,4.09"/><path class="cls-4" d="M1120.59,79.67s-50.46-15.7-102-8.41-65.61,12.89-99.25,7.29S885.65,69,863.78,75.18s-29.16,15.14-83-.56-68.41,21.31-126.17,6.73-59.43-25.79-114.38-6.73-67.29.56-102.62,6.73-39.81-5-63.36-5.61S349,79.67,320.43,77.42,280.62,69,233,74.62,134.83,78,134.83,78"/><path class="cls-4" d="M1119.84,80.33s-50.46-18.26-102.61-9.13S950.66,85.86,916.3,79.13s-34.13-10.57-55.75-3.6-29.32,15.62-85.8-1.44-71.37,22.59-129.52,8.65-59.84-28.36-114.39-8.65-66.57,3.84-99.25,8.65S394.82,76,371,76.25s-25.72,4.81-53.59,1.44-38.69-9.61-85.79-2.16-97.57,2.64-97.57,2.64"/><path class="cls-4" d="M1119.1,81s-50.47-20.83-103.18-9.85-67.53,16.42-102.61,8.57-34.61-11.61-56-3.84-29.48,16.1-88.6-2.33S694.38,97.42,635.83,84.13,575.59,53.21,521.44,73.55s-65.85,7.13-95.89,10.58-33.72-8.42-57.75-7.37-26.2,5.68-53.35,1.2-37.57-10.82-84.11-1.52-97,1.92-97,1.92"/><path class="cls-4" d="M1118.35,81.67s-50.47-23.39-103.74-10.57-68.49,18.18-104.29,9.21-35.09-12.66-56.24-4.09S824.45,92.8,762.69,73,685.38,98.17,626.43,85.51,565.79,52,512,73s-65.13,10.41-92.52,12.49-30.68-10.09-54.95-8.25-26.68,6.57-53.11,1S275,66.21,229,77.34s-96.45,1.21-96.45,1.21"/><path class="cls-4" d="M1117.6,82.34s-50.46-26-104.29-11.3S943.86,91,907.33,80.9s-35.57-13.7-56.48-4.33-29.79,17.06-94.2-4.09S676.39,98.92,617,86.9s-61-36-114.39-14.42-64.4,13.7-89.16,14.42-27.63-11.77-52.14-9.13-27.16,7.45-52.87.72-35.33-13.22-80.75-.24-95.88.48-95.88.48"/><path class="cls-4" d="M1116.85,83S1066.39,54.49,1012,71,941.59,92.7,904.34,81.48s-36.05-14.74-56.72-4.56-30,17.54-97-5-83.23,27.72-143,16.34S546.19,49.68,493.24,72s-63.68,17-85.79,16.34-24.59-13.46-49.35-10-27.63,8.33-52.62.48-34.21-14.42-79.07.4-95.32-.24-95.32-.24"/><path class="cls-4" d="M1116.11,83.67s-50.47-31.08-105.42-12.73S939.32,94.41,901.35,82.07s-36.53-15.78-57-4.81-30.12,18-99.81-5.84-86.19,29-146.35,18.26S536.39,48.51,483.84,71.42s-63,20.26-82.43,18.26-21.54-15.14-46.54-10.89S326.76,88,302.49,79s-33.09-15.62-77.39,1-94.76-1-94.76-1"/><path class="cls-4" d="M1115.36,84.34s-50.47-33.64-106-13.46-72.33,25.23-111,11.78-37-16.82-57.2-5-30.28,18.5-102.61-6.73-89.16,30.28-149.72,20.19S526.59,47.33,474.44,70.88,412.2,94.43,395.38,91.07s-18.5-16.82-43.74-11.78-28.59,10.1-52.15,0-32-16.82-75.69,1.69-94.21-1.69-94.21-1.69"/></g><g class="cls-3"><path class="cls-4" d="M19.65,85.11s62.84-132,132-52.8,90.07,99,138.25,46.2,46.08-66,71.21-19.8,37.71,72.61,127.77-26.4,111,118.81,186.43,79.21S752.77-60.11,817.7,32.31s77.5,92.41,98.45,79.21,23-66,54.46-46.21,35.61,39.61,64.93,0,39.8-66,94.26,6.6,117.3-6.6,117.3-6.6"/><path class="cls-4" d="M1246.17,67.93s-62.84,69.15-118,3.77-66.13-39.29-96.35-4.08-34.12,15.71-65.24-1-33.71,34.89-58,42.75S871.43,127.65,806,37.75,738.47,67.3,663.56,109.42,568.11-55.92,481.33,37.75s-98.85,66-124.28,23-23.64-29.55-70.92,18.86S218.41,107.85,150,35.87s-131.26,50-131.26,50"/><path class="cls-4" d="M1245.24,70.55s-62.84,59.09-118.7.94-67.33-32.37-98.45-1.57S993.38,81.55,962.56,68s-33.91,36.78-61.44,39.3-40.9,23.26-106.83-64.13-68,19.49-142.43,64.13S557.3-45.13,473.82,43.2,378.76,102.61,353,62.69,328.79,36.6,282.41,80.61s-66.33,23.57-134.06-41.18S17.79,86.58,17.79,86.58"/><path class="cls-4" d="M1244.3,73.17s-62.83,49-119.39-1.89-68.52-25.46-100.54,1-35.31,7.54-65.83-2.83-34.11,38.66-64.93,35.83-44.59,28.29-111-56.58-68.52,9.43-142.43,56.58S546.5-34.33,466.3,48.65,375,101.46,349,64.68s-24.83-22.63-70.32,17-64.93,18.86-132-38.67S16.86,87.31,16.86,87.31"/><path class="cls-4" d="M1243.37,75.79s-62.83,39-120.09-4.72-69.72-18.54-102.63,3.46S984.74,78,954.52,70.76s-34.32,40.55-68.43,32.38-48.28,33.32-115.2-49-69-.63-142.44,49-92.76-126.68-169.66-49S371.31,100.31,345,66.67s-25.43-19.17-70,16S211.42,96.85,145.09,46.56,15.92,88.05,15.92,88.05"/><path class="cls-4" d="M1242.44,78.41s-62.84,28.92-120.79-7.55-70.91-11.63-104.73,6-36.5-.63-66.43-4.72S916,114.56,878.58,101s-52,38.35-119.4-41.49S689.66,48.86,616.75,101,524.88-12.75,451.27,59.55,367.59,99.15,341,68.66s-26-15.71-69.72,15.09S209.1,93.18,143.46,50.12,15,88.78,15,88.78"/><path class="cls-4" d="M1241.51,81S1178.67,99.89,1120,70.65s-72.11-4.71-106.82,8.49-37.11-4.71-66.73-5.66-34.71,44.32-75.41,25.46S815.41,142.32,747.48,65s-70-20.75-142.43,33.94S514.08-2,443.76,65s-79.9,33-106.83,5.65S310.3,58.4,267.51,84.8s-60.74,4.71-125.68-31.12S14.06,89.51,14.06,89.51"/><path class="cls-4" d="M1240.58,83.65s-62.84,8.8-122.19-13.21-73.31,2.21-108.92,11-37.7-8.8-67-6.6-34.91,46.2-78.9,22S804.2,145.26,735.78,70.44s-70.52-30.8-142.44,26.41-90.07-88-157.09-26.41-76.11,26.41-103.34,2.21-27.23-8.81-69.12,13.2-59.35,0-123.58-28.61-127.08,33-127.08,33"/><path class="cls-4" d="M1239.65,86.27s-62.84-1.26-122.88-16-74.51,9.11-111,13.51-38.3-12.89-67.33-7.54S903.31,124.3,856,94.75s-63,53.44-132-18.86S653.06,35,581.64,94.75,492.47,19.63,428.73,75.89s-72.31,19.81-99.84-1.25-27.83-5.35-68.83,12.26-57.95-4.72-121.48-26.09S12.2,91,12.2,91"/><path class="cls-4" d="M1238.72,88.89S1175.88,77.57,1115.14,70s-75.71,16-113.11,16-38.9-17-67.63-8.49-35.31,50-85.88,15.09-66.73,58.46-136.15-11.32S640.85,30.42,569.94,92.66,481.66,30.42,421.22,81.34s-68.53,13.2-96.36-4.71-28.42-1.89-68.52,11.31S199.79,78.51,137,64.37,11.27,91.72,11.27,91.72"/><path class="cls-4" d="M1237.79,91.51S1175,70.13,1113.51,69.82,1036.6,92.76,998.3,88.36s-39.5-21.06-67.92-9.43S894.87,130.8,841,90.56s-70.42,63.5-140.34-3.77-72-61-142.44,3.77S470.86,41.21,413.7,86.79s-64.73,6.6-92.86-8.17-29,1.57-68.22,10.37-55.16-14.14-117.3-21.06-125,24.52-125,24.52"/><path class="cls-4" d="M1236.86,94.13s-62.84-31.44-125-24.52-78.1,29.86-117.3,21.06-40.1-25.15-68.23-10.38-35.7,53.76-92.86,8.18S759.38,157,689,92.24s-72.51-71-142.43-3.77S460.05,52,406.19,92.24s-60.94,0-89.37-11.63-29.63,5-67.93,9.43-53.76-18.86-115.2-18.55S9.41,93.18,9.41,93.18"/><path class="cls-4" d="M1235.93,96.74s-62.84-41.49-125.68-27.34S1031,106.17,990.86,93s-40.7-29.23-68.53-11.31S886.42,137.29,826,86.37s-77.8,73.56-148.72,11.32-73-81.1-142.43-11.32S449.25,62.8,398.68,97.69s-57.16-6.6-85.88-15.09-30.23,8.49-67.63,8.49-52.37-23.58-113.11-16S8.48,93.92,8.48,93.92"/><path class="cls-4" d="M1235,99.36s-62.84-51.55-126.38-30.17-80.49,43.69-121.49,26.09S945.84,62,918.31,83s-36.11,57.52-99.85,1.26S737,162.86,665.56,103.14,592.05,12,523.12,84.28s-84.68-10.69-132,18.86S337.8,89.93,308.77,84.59s-30.82,12-67.32,7.54-51-28.29-111-13.51-122.88,16-122.88,16"/><path class="cls-4" d="M1234.06,102S1171.23,40.37,1107,69s-81.69,50.61-123.58,28.6-41.89-37.4-69.13-13.2S878,143.79,811,82.18s-85.18,83.61-157.1,26.4-74-101.21-142.43-26.4-83.79,2.2-127.77,26.4-49.58-19.8-78.9-22-31.42,15.4-67,6.6-49.57-33-108.92-11S6.61,95.38,6.61,95.38"/><path class="cls-4" d="M1233.13,104.6s-62.84-71.66-127.77-35.83-82.89,57.52-125.68,31.12S937.19,58.4,910.26,85.74s-36.5,61.3-106.82-5.65S714.56,168.73,642.15,114,567.64,2.76,499.72,80.09,416.83,95.17,376.13,114s-45.78-26.4-75.4-25.46-32,18.86-66.73,5.66-48.18-37.72-106.83-8.49S5.68,96.12,5.68,96.12"/><path class="cls-4" d="M1232.2,107.22s-62.84-81.72-128.47-38.66S1019.65,133,976,102.19s-43.09-45.58-69.72-15.08S869.53,150.29,795.92,78s-92.56,93.67-165.47,41.49S555.44-1.85,488,78s-82,28-119.39,41.49-42-33-71.92-28.92-32.61,22.32-66.43,4.72-46.78-42.44-104.73-6S4.75,96.85,4.75,96.85"/><path class="cls-4" d="M1231.27,109.84s-62.84-91.78-129.17-41.49-85.28,71.35-129.86,36.15-43.69-49.67-70-16-36.91,65.07-113.81-12.58-96.26,98.71-169.67,49-75.5-131.39-142.43-49-81.09,40.87-115.21,49-38.2-39.61-68.42-32.38-33.21,25.78-66.13,3.78-45.38-47.15-102.64-3.46S3.82,97.58,3.82,97.58"/><path class="cls-4" d="M1230.34,112.46S1167.5,10.62,1100.47,68.14s-86.47,78.27-132,38.66-44.28-53.75-70.32-17-37.1,67-117.3-16S681,177.53,607,130.38,531-11.07,464.61,73.8s-80.2,53.75-111,56.58-34.41-46.21-64.93-35.84-33.82,29.24-65.83,2.83-44-51.86-100.55-.94S2.89,98.32,2.89,98.32"/><path class="cls-4" d="M1229.41,115.08s-62.84-111.9-130.57-47.15-87.67,85.19-134,41.18S919.9,51.27,894.17,91.19,856.87,160,773.38,71.7s-103.63,108.76-178,64.13S518.83-15.68,452.9,71.7s-79.29,66.64-106.82,64.13S315.46,83,284.63,96.54s-34.41,32.69-65.53,1.88S176.51,41.84,120.66,100,2,99.05,2,99.05"/><path class="cls-4" d="M1228.48,117.7s-62.84-122-131.26-50-88.88,92.1-136.16,43.69-45.48-61.92-70.91-18.86-37.51,70.73-124.28-22.94S658.54,183.4,583.63,141.28s-77-161.57-142.43-71.67-78.4,79.52-102.64,71.67-26.83-59.41-57.95-42.75-35,36.15-65.23.94-41.2-61.3-96.35,4.09S1,99.78,1,99.78"/><path class="cls-4" d="M1227.55,120.32s-62.84-132-132-52.81-90.07,99-138.25,46.21-46.08-66-71.22-19.8-37.7,72.61-127.77-26.41-111,118.82-186.42,79.21S494.43-24.9,429.5,67.51,352,159.93,331.05,146.72s-23-66-54.46-46.2-35.61,39.6-64.94,0-39.79-66-94.25,6.6S.1,100.52.1,100.52"/></g><g class="cls-3"><path class="cls-4" d="M19.65,85.11s62.84-132,132-52.8,90.07,99,138.25,46.2,46.08-66,71.21-19.8,37.71,72.61,127.77-26.4,111,118.81,186.43,79.21S752.77-60.11,817.7,32.31s77.5,92.41,98.45,79.21,23-66,54.46-46.21,35.61,39.61,64.93,0,39.8-66,94.26,6.6,117.3-6.6,117.3-6.6"/><path class="cls-4" d="M1246.17,67.93s-62.84,69.15-118,3.77-66.13-39.29-96.35-4.08-34.12,15.71-65.24-1-33.71,34.89-58,42.75S871.43,127.65,806,37.75,738.47,67.3,663.56,109.42,568.11-55.92,481.33,37.75s-98.85,66-124.28,23-23.64-29.55-70.92,18.86S218.41,107.85,150,35.87s-131.26,50-131.26,50"/><path class="cls-4" d="M1245.24,70.55s-62.84,59.09-118.7.94-67.33-32.37-98.45-1.57S993.38,81.55,962.56,68s-33.91,36.78-61.44,39.3-40.9,23.26-106.83-64.13-68,19.49-142.43,64.13S557.3-45.13,473.82,43.2,378.76,102.61,353,62.69,328.79,36.6,282.41,80.61s-66.33,23.57-134.06-41.18S17.79,86.58,17.79,86.58"/><path class="cls-4" d="M1244.3,73.17s-62.83,49-119.39-1.89-68.52-25.46-100.54,1-35.31,7.54-65.83-2.83-34.11,38.66-64.93,35.83-44.59,28.29-111-56.58-68.52,9.43-142.43,56.58S546.5-34.33,466.3,48.65,375,101.46,349,64.68s-24.83-22.63-70.32,17-64.93,18.86-132-38.67S16.86,87.31,16.86,87.31"/><path class="cls-4" d="M1243.37,75.79s-62.83,39-120.09-4.72-69.72-18.54-102.63,3.46S984.74,78,954.52,70.76s-34.32,40.55-68.43,32.38-48.28,33.32-115.2-49-69-.63-142.44,49-92.76-126.68-169.66-49S371.31,100.31,345,66.67s-25.43-19.17-70,16S211.42,96.85,145.09,46.56,15.92,88.05,15.92,88.05"/><path class="cls-4" d="M1242.44,78.41s-62.84,28.92-120.79-7.55-70.91-11.63-104.73,6-36.5-.63-66.43-4.72S916,114.56,878.58,101s-52,38.35-119.4-41.49S689.66,48.86,616.75,101,524.88-12.75,451.27,59.55,367.59,99.15,341,68.66s-26-15.71-69.72,15.09S209.1,93.18,143.46,50.12,15,88.78,15,88.78"/><path class="cls-4" d="M1241.51,81S1178.67,99.89,1120,70.65s-72.11-4.71-106.82,8.49-37.11-4.71-66.73-5.66-34.71,44.32-75.41,25.46S815.41,142.32,747.48,65s-70-20.75-142.43,33.94S514.08-2,443.76,65s-79.9,33-106.83,5.65S310.3,58.4,267.51,84.8s-60.74,4.71-125.68-31.12S14.06,89.51,14.06,89.51"/><path class="cls-4" d="M1240.58,83.65s-62.84,8.8-122.19-13.21-73.31,2.21-108.92,11-37.7-8.8-67-6.6-34.91,46.2-78.9,22S804.2,145.26,735.78,70.44s-70.52-30.8-142.44,26.41-90.07-88-157.09-26.41-76.11,26.41-103.34,2.21-27.23-8.81-69.12,13.2-59.35,0-123.58-28.61-127.08,33-127.08,33"/><path class="cls-4" d="M1239.65,86.27s-62.84-1.26-122.88-16-74.51,9.11-111,13.51-38.3-12.89-67.33-7.54S903.31,124.3,856,94.75s-63,53.44-132-18.86S653.06,35,581.64,94.75,492.47,19.63,428.73,75.89s-72.31,19.81-99.84-1.25-27.83-5.35-68.83,12.26-57.95-4.72-121.48-26.09S12.2,91,12.2,91"/><path class="cls-4" d="M1238.72,88.89S1175.88,77.57,1115.14,70s-75.71,16-113.11,16-38.9-17-67.63-8.49-35.31,50-85.88,15.09-66.73,58.46-136.15-11.32S640.85,30.42,569.94,92.66,481.66,30.42,421.22,81.34s-68.53,13.2-96.36-4.71-28.42-1.89-68.52,11.31S199.79,78.51,137,64.37,11.27,91.72,11.27,91.72"/><path class="cls-4" d="M1237.79,91.51S1175,70.13,1113.51,69.82,1036.6,92.76,998.3,88.36s-39.5-21.06-67.92-9.43S894.87,130.8,841,90.56s-70.42,63.5-140.34-3.77-72-61-142.44,3.77S470.86,41.21,413.7,86.79s-64.73,6.6-92.86-8.17-29,1.57-68.22,10.37-55.16-14.14-117.3-21.06-125,24.52-125,24.52"/><path class="cls-4" d="M1236.86,94.13s-62.84-31.44-125-24.52-78.1,29.86-117.3,21.06-40.1-25.15-68.23-10.38-35.7,53.76-92.86,8.18S759.38,157,689,92.24s-72.51-71-142.43-3.77S460.05,52,406.19,92.24s-60.94,0-89.37-11.63-29.63,5-67.93,9.43-53.76-18.86-115.2-18.55S9.41,93.18,9.41,93.18"/><path class="cls-4" d="M1235.93,96.74s-62.84-41.49-125.68-27.34S1031,106.17,990.86,93s-40.7-29.23-68.53-11.31S886.42,137.29,826,86.37s-77.8,73.56-148.72,11.32-73-81.1-142.43-11.32S449.25,62.8,398.68,97.69s-57.16-6.6-85.88-15.09-30.23,8.49-67.63,8.49-52.37-23.58-113.11-16S8.48,93.92,8.48,93.92"/><path class="cls-4" d="M1235,99.36s-62.84-51.55-126.38-30.17-80.49,43.69-121.49,26.09S945.84,62,918.31,83s-36.11,57.52-99.85,1.26S737,162.86,665.56,103.14,592.05,12,523.12,84.28s-84.68-10.69-132,18.86S337.8,89.93,308.77,84.59s-30.82,12-67.32,7.54-51-28.29-111-13.51-122.88,16-122.88,16"/><path class="cls-4" d="M1234.06,102S1171.23,40.37,1107,69s-81.69,50.61-123.58,28.6-41.89-37.4-69.13-13.2S878,143.79,811,82.18s-85.18,83.61-157.1,26.4-74-101.21-142.43-26.4-83.79,2.2-127.77,26.4-49.58-19.8-78.9-22-31.42,15.4-67,6.6-49.57-33-108.92-11S6.61,95.38,6.61,95.38"/><path class="cls-4" d="M1233.13,104.6s-62.84-71.66-127.77-35.83-82.89,57.52-125.68,31.12S937.19,58.4,910.26,85.74s-36.5,61.3-106.82-5.65S714.56,168.73,642.15,114,567.64,2.76,499.72,80.09,416.83,95.17,376.13,114s-45.78-26.4-75.4-25.46-32,18.86-66.73,5.66-48.18-37.72-106.83-8.49S5.68,96.12,5.68,96.12"/><path class="cls-4" d="M1232.2,107.22s-62.84-81.72-128.47-38.66S1019.65,133,976,102.19s-43.09-45.58-69.72-15.08S869.53,150.29,795.92,78s-92.56,93.67-165.47,41.49S555.44-1.85,488,78s-82,28-119.39,41.49-42-33-71.92-28.92-32.61,22.32-66.43,4.72-46.78-42.44-104.73-6S4.75,96.85,4.75,96.85"/><path class="cls-4" d="M1231.27,109.84s-62.84-91.78-129.17-41.49-85.28,71.35-129.86,36.15-43.69-49.67-70-16-36.91,65.07-113.81-12.58-96.26,98.71-169.67,49-75.5-131.39-142.43-49-81.09,40.87-115.21,49-38.2-39.61-68.42-32.38-33.21,25.78-66.13,3.78-45.38-47.15-102.64-3.46S3.82,97.58,3.82,97.58"/><path class="cls-4" d="M1230.34,112.46S1167.5,10.62,1100.47,68.14s-86.47,78.27-132,38.66-44.28-53.75-70.32-17-37.1,67-117.3-16S681,177.53,607,130.38,531-11.07,464.61,73.8s-80.2,53.75-111,56.58-34.41-46.21-64.93-35.84-33.82,29.24-65.83,2.83-44-51.86-100.55-.94S2.89,98.32,2.89,98.32"/><path class="cls-4" d="M1229.41,115.08s-62.84-111.9-130.57-47.15-87.67,85.19-134,41.18S919.9,51.27,894.17,91.19,856.87,160,773.38,71.7s-103.63,108.76-178,64.13S518.83-15.68,452.9,71.7s-79.29,66.64-106.82,64.13S315.46,83,284.63,96.54s-34.41,32.69-65.53,1.88S176.51,41.84,120.66,100,2,99.05,2,99.05"/><path class="cls-4" d="M1228.48,117.7s-62.84-122-131.26-50-88.88,92.1-136.16,43.69-45.48-61.92-70.91-18.86-37.51,70.73-124.28-22.94S658.54,183.4,583.63,141.28s-77-161.57-142.43-71.67-78.4,79.52-102.64,71.67-26.83-59.41-57.95-42.75-35,36.15-65.23.94-41.2-61.3-96.35,4.09S1,99.78,1,99.78"/><path class="cls-4" d="M1227.55,120.32s-62.84-132-132-52.81-90.07,99-138.25,46.21-46.08-66-71.22-19.8-37.7,72.61-127.77-26.41-111,118.82-186.42,79.21S494.43-24.9,429.5,67.51,352,159.93,331.05,146.72s-23-66-54.46-46.2-35.61,39.6-64.94,0-39.79-66-94.25,6.6S.1,100.52.1,100.52"/></g></g></g></g></g></svg>