<svg xmlns="http://www.w3.org/2000/svg" viewBox="0 0 229 118.8"><defs><style>.cls-1{fill:#fff;}</style></defs><g id="Camada_2" data-name="Camada 2"><g id="Camada_1-2" data-name="Camada 1"><path class="cls-1" d="M79,118.8V110l-79,8.7V78.64l66-7.27V58a16.1,16.1,0,0,1,1.86-7.52l.07-.14a13.51,13.51,0,0,1,.75-1.23L98.5,0l29.85,49.12c.23.35.47.74.68,1.12l.11.21A16.17,16.17,0,0,1,131,58v6.25l30-3.3v8l68-8.09V101Zm2-11v8.75L227,99.17V63.1l-68,8.09v-8l-30,3.3V58a14.24,14.24,0,0,0-1.62-6.59l-.11-.18a11,11,0,0,0-.61-1L98.5,3.85,70.36,50.16a12.7,12.7,0,0,0-.67,1.12l-.07.12A14.17,14.17,0,0,0,68,58V73.16L2,80.43V116.5Z"/><path class="cls-1" d="M58.53,90.7l-.81.09a.54.54,0,0,0-.49.55v1.18a.41.41,0,0,0,.49.44l.81-.08c.77-.08,1.15-.22,1.15-1.21S59.3,90.62,58.53,90.7Z"/><path class="cls-1" d="M72,89.25c-1.05.12-1.16.51-1.16,1.28v1.74a.38.38,0,0,0,.48.43l1.36-.14a.5.5,0,0,0,.48-.55V90.28C73.17,89.52,73.06,89.14,72,89.25Z"/><path class="cls-1" d="M31.08,93.56c-1,.11-1.16.5-1.16,1.27v1.75a.38.38,0,0,0,.48.42l1.37-.14a.5.5,0,0,0,.48-.55V94.59C32.25,93.82,32.13,93.45,31.08,93.56Z"/><path class="cls-1" d="M212,80.59l-.83.1a.56.56,0,0,0-.5.57l0,1.22a.43.43,0,0,0,.51.45l.83-.1c.79-.09,1.18-.24,1.16-1.26S212.74,80.5,212,80.59Z"/><path class="cls-1" d="M86,84.84v-.09l68-16v-.1L123.82,72V57.74a9,9,0,0,0-1-4.22h0v0c-.16-.28-.32-.55-.5-.82l-22.06-36.3L98.5,13.56l-1.71,2.81L74.73,52.67c-.18.27-.34.54-.5.82v0h0a9,9,0,0,0-1,4.22V77.55L7,84.84v26l79-8.7v8.7L222,94.65v-26Zm21.27-11L89.73,75.73v-18C89.73,54,93.66,51,98.5,51s8.77,3,8.77,6.77ZM119,54.91l.25.41a5.14,5.14,0,0,1,.62,2.42V72.42l-8.55.94V57.74A4.53,4.53,0,0,1,115.55,53,4.15,4.15,0,0,1,119,54.91ZM98.5,21.26l4.12,6.79H94.38ZM25.68,102.13a.49.49,0,0,1-.48.53l-1.78.18a.38.38,0,0,1-.48-.42V96.11c0-.11-.14-.11-.18,0l-1.54,6.55a.56.56,0,0,1-.53.47l-1.05.11a.43.43,0,0,1-.52-.36l-1.55-6.22a.09.09,0,0,0-.17,0V103a.49.49,0,0,1-.48.53l-1.78.18a.38.38,0,0,1-.48-.42V93a.48.48,0,0,1,.48-.53l3.29-.34a.42.42,0,0,1,.51.37l1.13,4.54c0,.16.16.15.19,0l1.14-4.77a.55.55,0,0,1,.5-.49l3.3-.35c.32,0,.48.11.48.43Zm9.3-1c0,.36-.15.57-.47.6l-1.79.19a.38.38,0,0,1-.47-.43V100c0-.32-.16-.46-.48-.43l-1.37.15a.49.49,0,0,0-.48.53v1.39a.48.48,0,0,1-.48.53l-1.78.19c-.3,0-.48-.14-.48-.49V95.12c0-2,.32-4.2,3.9-4.57S35,92.28,35,94.3Zm9.66-9.4a.48.48,0,0,1-.47.53l-2.23.24a.48.48,0,0,0-.48.53v7.49A.49.49,0,0,1,41,101l-1.78.19a.39.39,0,0,1-.48-.43v-7.5c0-.31-.16-.46-.48-.42L36,93.07a.39.39,0,0,1-.48-.43V90.85a.48.48,0,0,1,.48-.53l8.15-.86c.31,0,.47.11.47.43Zm8.6-.9a.49.49,0,0,1-.48.53l-3.85.4a.49.49,0,0,0-.48.53v.52a.39.39,0,0,0,.48.43l2.46-.26c.32,0,.48.11.48.43v1.79a.48.48,0,0,1-.48.53l-2.46.26a.48.48,0,0,0-.48.53V97a.38.38,0,0,0,.48.43l3.85-.4c.32,0,.48.11.48.43v1.79a.48.48,0,0,1-.48.53l-6.69.7a.39.39,0,0,1-.48-.43V89.79a.49.49,0,0,1,.48-.53l6.69-.7c.32,0,.48.11.48.43Zm9.08,8L60.51,99a.36.36,0,0,1-.37-.19l-1.65-3a.16.16,0,0,0-.13-.07l-.64.07a.54.54,0,0,0-.49.55v2.52a.55.55,0,0,1-.5.55L55,99.53a.42.42,0,0,1-.49-.44V88.88a.54.54,0,0,1,.49-.55L58.44,88c2.83-.3,4,.8,4,3.42a4,4,0,0,1-1.21,3.27.17.17,0,0,0-.05.21l1.69,3A.63.63,0,0,1,62.32,98.76Zm4.28-.93a.49.49,0,0,1-.48.53l-1.75.18a.39.39,0,0,1-.48-.43V87.87a.49.49,0,0,1,.48-.53l1.75-.19c.32,0,.48.11.48.43Zm9.31-1a.52.52,0,0,1-.48.6l-1.78.19a.39.39,0,0,1-.48-.44V95.74c0-.32-.16-.46-.48-.43l-1.36.15a.48.48,0,0,0-.48.53v1.39a.48.48,0,0,1-.48.53l-1.78.19c-.3,0-.48-.14-.48-.5V90.82c0-2,.32-4.2,3.9-4.57S75.91,88,75.91,90Zm8.75-.85a.48.48,0,0,1-.48.53l-6.28.66a.39.39,0,0,1-.48-.43V86.44a.47.47,0,0,1,.48-.52l1.78-.19c.32,0,.48.11.48.43v7.49a.39.39,0,0,0,.47.43l3.55-.37c.32,0,.48.11.48.43Zm1.07-19.76-8.55.94V57.74a5.14,5.14,0,0,1,.62-2.42l.25-.41a4.15,4.15,0,0,1,3.4-1.9,4.53,4.53,0,0,1,4.28,4.73ZM81.63,49,92,32.05h13.1l10.32,17a8.09,8.09,0,0,0-6.06,3,14.08,14.08,0,0,0-21.62,0A8.09,8.09,0,0,0,81.63,49Zm20.48,53.67c-3.87.46-4.14-2.43-4.15-3.51l-.06-4.12c0-1.09.17-4,4-4.49,3.48-.41,4,1.88,4.13,3.14a.49.49,0,0,1-.35.5l-1.81.63a.49.49,0,0,1-.66-.43c-.09-.72-.39-1.11-1.28-1-1.21.15-1.28.93-1.26,2.2l0,2.37c0,1.27.11,2,1.32,1.89.9-.11,1.14-.57,1.23-1.34a.57.57,0,0,1,.63-.55l1.85.19a.39.39,0,0,1,.37.43C106.1,99.85,105.6,102.27,102.11,102.69Zm9.16-1.09c-3.88.46-4.15-2.43-4.16-3.51L107.05,94c0-1.09.17-4,4-4.49s4.14,2.43,4.16,3.51l0,4.12C115.33,98.19,115.14,101.13,111.27,101.6Zm16.39-2.25-1.83.21a.4.4,0,0,1-.5-.43l-.09-6.49c0-.11-.15-.11-.18,0l-1.5,6.76a.58.58,0,0,1-.53.49L122,100a.45.45,0,0,1-.54-.37l-1.68-6.38c0-.11-.18-.07-.18,0l.09,6.49a.5.5,0,0,1-.48.55l-1.84.22a.39.39,0,0,1-.49-.44l-.15-10.53a.5.5,0,0,1,.48-.56l3.39-.4a.45.45,0,0,1,.53.38l1.23,4.65c0,.16.16.15.19,0l1.1-4.93a.56.56,0,0,1,.51-.5l3.39-.41c.32,0,.49.11.49.44l.15,10.53A.5.5,0,0,1,127.66,99.35ZM133.82,95l-.79.1a.49.49,0,0,0-.48.55l0,2.63a.49.49,0,0,1-.48.56l-1.83.22a.41.41,0,0,1-.5-.44l-.14-10.52a.51.51,0,0,1,.48-.57l3.6-.43c2.91-.34,4.1.77,4.14,3.47S136.73,94.64,133.82,95Zm12.09,2.19-6.45.77a.4.4,0,0,1-.5-.44L138.81,87a.49.49,0,0,1,.49-.55l1.83-.22c.32,0,.49.1.49.43l.11,7.71a.4.4,0,0,0,.5.43l3.64-.43c.33,0,.5.11.5.43l0,1.85A.49.49,0,0,1,145.91,97.17Zm8.86-1.06-6.86.82a.39.39,0,0,1-.5-.43L147.26,86a.5.5,0,0,1,.49-.55l6.86-.82c.33,0,.49.11.5.44l0,1.84a.49.49,0,0,1-.48.55l-4,.47a.51.51,0,0,0-.48.56V89a.4.4,0,0,0,.5.44l2.53-.3c.33,0,.49.1.5.43l0,1.84a.49.49,0,0,1-.48.56l-2.54.3a.5.5,0,0,0-.48.55v.53a.4.4,0,0,0,.5.43l3.95-.47c.33,0,.49.11.5.44l0,1.84A.48.48,0,0,1,154.77,96.11Zm12.57-1.49-1.83.21a.4.4,0,0,1-.5-.43l-.09-6.49c0-.11-.15-.11-.18,0l-1.49,6.76a.59.59,0,0,1-.54.49l-1.07.13a.45.45,0,0,1-.55-.37l-1.68-6.38c0-.11-.18-.07-.18,0l.09,6.49a.49.49,0,0,1-.48.55l-1.83.22c-.33,0-.49-.12-.5-.44l-.15-10.53a.5.5,0,0,1,.49-.56l3.38-.4a.44.44,0,0,1,.53.38L162,89c0,.16.17.14.2,0L163.28,84a.56.56,0,0,1,.52-.5l3.38-.41c.33,0,.49.11.5.44l.14,10.53A.49.49,0,0,1,167.34,94.62Zm9.48-1.13L170,94.3a.39.39,0,0,1-.49-.43l-.15-10.54a.5.5,0,0,1,.48-.55l6.87-.82c.33,0,.49.11.5.44l0,1.84a.49.49,0,0,1-.48.55l-4,.48a.49.49,0,0,0-.48.55v.53a.39.39,0,0,0,.49.43l2.54-.3c.32,0,.49.1.49.43l0,1.85a.5.5,0,0,1-.48.55l-2.54.3a.49.49,0,0,0-.48.55v.53a.4.4,0,0,0,.49.44l4-.48c.33,0,.49.11.5.44l0,1.84A.49.49,0,0,1,176.82,93.49Zm10-1.19-2.4.29a.51.51,0,0,1-.58-.31l-2.3-5.22c-.06-.14-.19-.09-.19.07l.07,5.32a.5.5,0,0,1-.48.55l-1.83.22a.4.4,0,0,1-.5-.44l-.15-10.53a.5.5,0,0,1,.49-.55l2.4-.29a.51.51,0,0,1,.58.31l2.3,5.22c.06.14.19.09.19-.08l-.07-5.31a.5.5,0,0,1,.48-.56l1.83-.21c.33,0,.5.1.5.43l.15,10.54A.5.5,0,0,1,186.77,92.3ZM197,82.38l-2.29.27a.49.49,0,0,0-.48.55l.11,7.71a.5.5,0,0,1-.49.55l-1.83.22a.41.41,0,0,1-.5-.44l-.1-7.7c0-.33-.17-.48-.5-.44l-2.29.27a.4.4,0,0,1-.5-.43l0-1.85a.5.5,0,0,1,.48-.55l8.37-1c.33,0,.5.11.5.44l0,1.84A.49.49,0,0,1,197,82.38ZM205.85,90l-1.83.22c-.31,0-.5-.11-.5-.44l0-1.43c0-.33-.17-.48-.5-.44l-1.4.17a.5.5,0,0,0-.49.55l0,1.43a.49.49,0,0,1-.48.56l-1.83.22c-.31,0-.5-.14-.5-.51l-.1-7c0-2.07.27-4.32,3.95-4.75s4,1.72,4.06,3.8l.1,7C206.33,89.77,206.17,90,205.85,90ZM216,88.82,214.1,89a.36.36,0,0,1-.38-.18L212,85.75a.17.17,0,0,0-.13-.07l-.65.08a.56.56,0,0,0-.5.57l0,2.6a.56.56,0,0,1-.5.57l-1.84.22a.43.43,0,0,1-.51-.45l-.15-10.5a.56.56,0,0,1,.5-.57l3.58-.43c2.91-.35,4.11.77,4.15,3.47a4.06,4.06,0,0,1-1.2,3.37.19.19,0,0,0,0,.22l1.78,3A.63.63,0,0,1,216,88.82Z"/><path class="cls-1" d="M202.21,81.72c-1.08.13-1.19.54-1.18,1.33l0,1.79a.41.41,0,0,0,.5.44l1.4-.17a.52.52,0,0,0,.49-.57l0-1.78C203.41,82,203.29,81.59,202.21,81.72Z"/><path class="cls-1" d="M133.84,89.9,133,90a.49.49,0,0,0-.48.55v1.25a.41.41,0,0,0,.5.44l.88-.11c.79-.09,1.18-.24,1.17-1.26S134.63,89.81,133.84,89.9Z"/><path class="cls-1" d="M112.46,94.2c0-1.27-.11-2-1.32-1.89s-1.28.93-1.27,2.2l0,2.37c0,1.26.11,2,1.32,1.89s1.28-.93,1.26-2.2Z"/></g></g></svg>