<svg xmlns="http://www.w3.org/2000/svg" viewBox="0 0 164.41 106.64"><defs><style>.cls-1{fill:#fff;}</style></defs><g id="Camada_2" data-name="Camada 2"><g id="Camada_1-2" data-name="Camada 1"><path class="cls-1" d="M59.68,51,64,57.69,57.16,68.36h5.21L82.2,37.43,102,68.36h5.21l-6.84-10.67L104.73,51l11.16,17.41h5.21L106.57,45.7l-1.84-2.87-1.85,2.87L97.8,53.63,84.05,32.19,83.3,31V25.47l20-7.37,2.79-1-2.79-1-20-7.37V6.33H81.11V31l-.75,1.17L66.61,53.63,61.52,45.7l-1.84-2.87L57.83,45.7,38.92,72.58h5.21ZM83.3,11l16.47,6.06L83.3,23.13Z"/><path class="cls-1" d="M73.52,79.77l-.87.06a.58.58,0,0,0-.54.56l0,1.26a.45.45,0,0,0,.51.49l.86-.06c.82-.06,1.23-.2,1.26-1.25S74.33,79.71,73.52,79.77Z"/><path class="cls-1" d="M8,71.35,6.66,99.82,156.4,89.15l1.34-28.47ZM81,74l2.46-2.59c.25-.25.45-.3.71,0l2.35,2.27c.25.22.24.46,0,.75l-.49.49a.45.45,0,0,1-.71,0l-1.46-1.38c-.07-.06-.12-.08-.21,0l-1.5,1.57a.45.45,0,0,1-.7,0L81,74.72A.48.48,0,0,1,81,74ZM38.33,91.31l-1.93.15a.4.4,0,0,1-.39-.21L34.36,88a.13.13,0,0,0-.14-.07l-.67,0a.58.58,0,0,0-.55.56l-.08,2.69a.58.58,0,0,1-.54.56l-1.9.14A.45.45,0,0,1,30,91.4l.34-10.84a.58.58,0,0,1,.54-.56l3.71-.27c3-.23,4.2,1,4.11,3.76a4.22,4.22,0,0,1-1.39,3.43.19.19,0,0,0-.06.22l1.7,3.21A.66.66,0,0,1,38.33,91.31ZM48.61,81.1a.51.51,0,0,1-.52.54L44,82a.5.5,0,0,0-.52.54l0,.55a.42.42,0,0,0,.5.47l2.62-.2c.34,0,.51.14.5.48L47,85.69a.53.53,0,0,1-.53.55l-2.63.19a.51.51,0,0,0-.52.55l0,.54a.41.41,0,0,0,.5.47l4.1-.3c.34,0,.5.13.49.47l-.06,1.91a.49.49,0,0,1-.52.54l-7.12.53a.42.42,0,0,1-.5-.47l.34-10.88a.51.51,0,0,1,.53-.54l7.12-.53c.34,0,.5.13.49.47Zm9.78-.73a.51.51,0,0,1-.52.55l-4.27.32a.51.51,0,0,0-.53.54l0,.55a.42.42,0,0,0,.5.47l2.79-.21c.34,0,.51.14.5.48L56.78,85a.51.51,0,0,1-.53.54l-2.79.21a.52.52,0,0,0-.53.55l-.11,3.46a.51.51,0,0,1-.52.55l-2,.15a.41.41,0,0,1-.49-.47l.33-10.88a.52.52,0,0,1,.53-.54L58,78c.34,0,.5.13.49.47Zm9.33-.68a.51.51,0,0,1-.53.54l-4.1.31a.5.5,0,0,0-.52.54l0,.55a.41.41,0,0,0,.49.47l2.63-.19c.34,0,.5.13.49.47l-.06,1.9a.52.52,0,0,1-.52.55L63,85a.51.51,0,0,0-.52.55l0,.54a.41.41,0,0,0,.49.47l4.1-.3c.34,0,.51.13.5.47l-.06,1.91a.5.5,0,0,1-.53.54l-7.12.53a.41.41,0,0,1-.49-.47l.34-10.88a.5.5,0,0,1,.52-.54l7.12-.53c.34,0,.51.13.5.47Zm9.55,8.75-1.93.14a.36.36,0,0,1-.38-.21L73.3,85.09a.16.16,0,0,0-.13-.08l-.68,0a.58.58,0,0,0-.54.57l-.09,2.68a.57.57,0,0,1-.54.57l-1.9.14a.45.45,0,0,1-.51-.49l.34-10.84a.59.59,0,0,1,.54-.57l3.72-.27c3-.22,4.19,1,4.11,3.77A4.22,4.22,0,0,1,76.23,84a.2.2,0,0,0-.06.23l1.69,3.21A.66.66,0,0,1,77.27,88.44ZM87.55,78.22a.51.51,0,0,1-.52.55l-4.1.3a.52.52,0,0,0-.53.55l0,.54c0,.33.17.5.5.47l2.62-.19c.34,0,.51.13.5.47l-.06,1.91a.51.51,0,0,1-.53.54l-2.62.2a.51.51,0,0,0-.53.54v.55a.41.41,0,0,0,.49.47l4.1-.3c.34,0,.5.13.49.47l-.06,1.9a.51.51,0,0,1-.52.55l-7.12.52a.41.41,0,0,1-.49-.47l.33-10.87a.53.53,0,0,1,.53-.55l7.12-.52c.34,0,.5.13.49.47Zm10.22,8.2a.51.51,0,0,1-.53.54l-2.49.19a.52.52,0,0,1-.58-.35L92,81.31c-.06-.14-.2-.1-.21.07l-.17,5.49a.52.52,0,0,1-.52.55l-1.9.14a.42.42,0,0,1-.49-.48l.34-10.87a.52.52,0,0,1,.52-.55l2.49-.18a.51.51,0,0,1,.58.35l2.13,5.48c.07.15.2.11.21-.06l.17-5.49a.52.52,0,0,1,.52-.55l1.9-.14c.34,0,.51.14.49.47Zm10-8.2-1.9.56a.5.5,0,0,1-.66-.48c-.06-.74-.35-1.16-1.27-1.09-1.25.09-1.36.9-1.4,2.21l-.08,2.44c0,1.31,0,2.1,1.27,2,.94-.07,1.2-.53,1.33-1.32a.59.59,0,0,1,.68-.54l1.9.29a.39.39,0,0,1,.36.46c-.11,1.3-.75,3.77-4.36,4-4,.3-4.16-2.69-4.12-3.81l.13-4.25c0-1.12.36-4.14,4.38-4.44,3.61-.27,4.1,2.12,4.12,3.42A.5.5,0,0,1,107.82,78.22Zm4.36,7.13a.51.51,0,0,1-.52.55l-1.87.14a.41.41,0,0,1-.49-.47l.33-10.88a.52.52,0,0,1,.53-.54L112,74c.33,0,.5.13.49.47Zm10.31-8-.22,7.2a.55.55,0,0,1-.53.62l-1.9.14a.41.41,0,0,1-.49-.47l.05-1.48c0-.34-.16-.5-.5-.48l-1.45.11a.52.52,0,0,0-.53.55l0,1.48a.5.5,0,0,1-.53.54l-1.9.15c-.32,0-.5-.17-.49-.54l.23-7.21c.06-2.14.47-4.44,4.29-4.72S122.56,75.2,122.49,77.34ZM127.9,85c-3.56.26-4.24-2-4.29-3.35a.56.56,0,0,1,.46-.59l1.93-.57c.34-.09.52,0,.54.4A1.25,1.25,0,0,0,128,82c.83-.07,1.45-.6,1.36-1.06-.27-1.42-5.39-.72-5.26-4.62,0-.51.39-3.54,4.19-3.82,3.49-.26,4.24,2,4.3,3.17a.55.55,0,0,1-.46.59l-1.94.57c-.35.1-.51-.05-.55-.38a1.22,1.22,0,0,0-1.44-1c-.66.05-1.08.47-1,.85.2,1.31,5.56.88,5.44,4.79C132.59,81.61,131.92,84.66,127.9,85Z"/><path class="cls-1" d="M118.38,76.42c-1.12.08-1.25.5-1.28,1.32L117,79.59a.42.42,0,0,0,.5.47L119,80a.53.53,0,0,0,.52-.56l.06-1.84C119.6,76.74,119.5,76.34,118.38,76.42Z"/><path class="cls-1" d="M34.57,82.64l-.86.06a.58.58,0,0,0-.54.57l0,1.26a.44.44,0,0,0,.51.48L34.5,85c.82-.06,1.23-.19,1.26-1.24S35.39,82.58,34.57,82.64Z"/><path class="cls-1" d="M0,106.64,2,65.43,38,62.86,52.59,42.15l7.09-11,6.93,10.79,8.16-12.73V0H89.63V4.26l34.83,12.81L90,29.75,97.8,41.9l6.93-10.81L121.3,56.93l43.11-3.07-1.95,41.21-.94.06ZM4,67.41l-1.75,37L160.44,93.09l1.75-37-42,3L104.73,35,97.8,45.81l-10.28-16V28.41l30.83-11.34L87.52,5.73V2.11H76.89V29.78l-10.28,16L59.68,35l-5.34,8.32L39.16,64.9Z"/></g></g></svg>