<svg xmlns="http://www.w3.org/2000/svg" viewBox="0 0 553.4 59.61"><defs><style>.cls-1{fill:#fff;}</style></defs><g id="Layer_2" data-name="Layer 2"><g id="Layer_1-2" data-name="Layer 1"><path class="cls-1" d="M9.26,38.53l-2,7.2H.72l8.56-28h8.3l8.72,28H19.47l-2.15-7.2Zm7.12-4.72-1.75-6c-.48-1.66-1-3.76-1.41-5.4h-.08c-.42,1.65-.84,3.78-1.29,5.41l-1.67,6Z" transform="translate(-0.72)"/><path class="cls-1" d="M34.88,17.69V33.82c0,4.84,1.87,7.31,5.08,7.31s5.16-2.34,5.16-7.31V17.69h6.34V33.43c0,8.65-4.37,12.76-11.71,12.76-7.08,0-11.2-3.93-11.2-12.84V17.69Z" transform="translate(-0.72)"/><path class="cls-1" d="M57,18.08a55.73,55.73,0,0,1,8.55-.6c5.32,0,8.79,1,11.48,3,2.91,2.18,4.74,5.6,4.74,10.55,0,5.38-1.94,9.09-4.64,11.36-3,2.46-7.46,3.63-12.93,3.63a54.55,54.55,0,0,1-7.2-.41ZM63.28,41a14.74,14.74,0,0,0,2.21.11C71.23,41.12,75,38,75,31.24c0-5.82-3.4-8.89-8.85-8.89a13.33,13.33,0,0,0-2.88.25Z" transform="translate(-0.72)"/><path class="cls-1" d="M92.24,17.69v28H85.9v-28Z" transform="translate(-0.72)"/><path class="cls-1" d="M126.42,18.08a25.9,25.9,0,0,1,5.65-.6c3.49,0,5.78.76,7.33,2.32a6.18,6.18,0,0,1,1.73,4.61,6.8,6.8,0,0,1-4.83,6.25v.12a7.27,7.27,0,0,1,5.92,7.13,7.43,7.43,0,0,1-2.08,5.36c-1.85,1.91-4.87,2.68-8.85,2.68-2.13,0-3.77-.16-4.87-.25Zm2,12h4.1c4.05,0,6.6-2.4,6.6-5.51,0-3.95-3-5.38-7.14-5.38a15.73,15.73,0,0,0-3.56.3Zm0,14a18.45,18.45,0,0,0,3.43.22c4.31,0,8.33-1.53,8.33-6.31,0-4.43-3.78-6.32-8.22-6.33H128.4Z" transform="translate(-0.72)"/><path class="cls-1" d="M170.38,31.43c0,9.88-6.06,14.76-12.55,14.76-6.9,0-12.23-5.43-12.23-14.2,0-9.19,5.56-14.75,12.57-14.75S170.38,22.75,170.38,31.43Zm-22.72.5c0,6.31,3.67,12.6,10.29,12.6s10.37-6,10.37-13c0-5.91-3.24-12.67-10.29-12.67S147.66,25.38,147.66,31.93Z" transform="translate(-0.72)"/><path class="cls-1" d="M198.28,31.43c0,9.88-6.05,14.76-12.55,14.76-6.89,0-12.23-5.43-12.23-14.2,0-9.19,5.57-14.75,12.58-14.75S198.28,22.75,198.28,31.43Zm-22.72.5c0,6.31,3.67,12.6,10.3,12.6s10.36-6,10.36-13c0-5.91-3.23-12.67-10.28-12.67S175.56,25.38,175.56,31.93Z" transform="translate(-0.72)"/><path class="cls-1" d="M203.24,17.69h2V31.9h.14c.81-1.1,1.66-2.06,2.39-2.93l9.94-11.28h2.44L209.46,29.6l11.67,16.13h-2.39L208.1,31l-2.88,3.16V45.73h-2Z" transform="translate(-0.72)"/><path class="cls-1" d="M386.24,0V59.6c.89,0,1.77,0,2.66,0V0C388,0,387.13,0,386.24,0Zm-5.51,59.21c.88.11,1.76.19,2.66.25V.14c-.9.06-1.78.15-2.66.25Zm-5.5-1c.86.22,1.74.4,2.65.56V.82c-.91.16-1.79.35-2.65.56Zm22,.51c.9-.17,1.79-.37,2.65-.59V1.46c-.86-.22-1.75-.42-2.65-.59Zm-5.51.71c.89-.07,1.78-.16,2.65-.27V.43c-.87-.11-1.76-.2-2.65-.27Zm-22-56.23V56.39l.86.35c.57.24,1.17.46,1.79.67V2.2c-.62.21-1.22.43-1.79.67ZM353.2,49.59l2.65,1.09V8.93L353.2,10ZM402.76,2.31v55c.51-.18,1-.36,1.49-.56l1.17-.48V3.35l-1.17-.48C403.77,2.67,403.27,2.49,402.76,2.31ZM364.21,54.12l2.66,1.09V4.4l-2.66,1.09Zm-5.51-2.27,2.66,1.1V6.67L358.7,7.76Zm49.57,3.24,2.66-1.1V5.62l-2.66-1.09Zm33.05-13.61L444,40.39V19.23l-2.65-1.1Zm5.5-2.27,2.66-1.09V21.49l-2.66-1.09Zm-11,4.54,2.65-1.09V17l-2.65-1.1ZM320.15,37.43c.9.12,1.79.25,2.66.42V21.77c-.87.16-1.76.3-2.66.41Zm27.54,9.89,2.65,1.09V11.2l-2.65,1.09ZM452.33,36.94,455,35.85V23.76l-2.65-1.09Zm-33,13.61,2.65-1.09V10.15l-2.65-1.09Zm-5.51,2.27,2.65-1.09V7.89l-2.65-1.1Zm11-4.54,2.66-1.09V12.42l-2.66-1.09ZM430.3,46l2.66-1.1V14.69L430.3,13.6ZM530,25.43l-.53.2V34l.53.19a13,13,0,0,0,2.13.66V24.77a14,14,0,0,0-2.13.66Zm-17.05,10.2,2.66-1.09V25.08L512.91,24Zm-11,3c.9-.15,1.78-.31,2.65-.49V21.43c-.87-.18-1.75-.34-2.65-.49Zm16.52-5.11a18.32,18.32,0,0,1,2.65-.43V26.48a18.33,18.33,0,0,1-2.65-.42Zm-22,5.77c.89-.07,1.78-.16,2.65-.26V20.54c-.87-.1-1.76-.19-2.65-.26Zm-5.51.23c.89,0,1.77,0,2.66-.06V20.11c-.89,0-1.77-.05-2.66-.05ZM540.45,35a15.29,15.29,0,0,0,2.65-.69v-9a14.44,14.44,0,0,0-2.65-.7ZM546,33.17l2.65-1.1V27.54L546,26.45Zm-11-8.82V35.27a26.18,26.18,0,0,0,2.66,0v-11A23.57,23.57,0,0,0,534.94,24.35ZM342.18,45.05l2.66,1.09V13.47l-2.66,1.09ZM523.93,33a20.87,20.87,0,0,1,2.65.25v-7a22.89,22.89,0,0,1-2.65.24Zm-60.58,1.68a20.4,20.4,0,0,1,2.65.34V24.55a20.4,20.4,0,0,1-2.65.34Zm-5.51.31a20.42,20.42,0,0,1,2.65-.32V24.9a20.42,20.42,0,0,1-2.65-.32ZM336.67,42.78l2.66,1.1V15.74l-2.66,1.09Zm-5.5-2.27,2.65,1.1V18l-2.65,1.09Zm137.68-4.59c.85.34,1.74.66,2.66.95V22.74c-.92.29-1.81.61-2.66,1Zm16.52,3.46c.89.06,1.77.11,2.66.14V20.1c-.89,0-1.77.07-2.66.13Zm-11-1.69c.87.22,1.75.42,2.65.6v-17c-.9.18-1.78.38-2.65.59Zm33-.19c.91-.24,1.8-.51,2.66-.79V22.91c-.86-.29-1.75-.56-2.66-.8Zm-27.53,1.28c.87.13,1.76.25,2.65.35V20.49c-.89.09-1.78.21-2.65.34Zm71.59-10.07V30.9l2.66-1.09ZM325.66,38.5a27.43,27.43,0,0,1,2.65.85V20.26a27.43,27.43,0,0,1-2.65.86Z" transform="translate(-0.72)"/><path class="cls-1" d="M245.89,34.26l.52-.2V25.7l-.52-.19a13,13,0,0,0-2.13-.66V34.91a14,14,0,0,0,2.13-.65Z" transform="translate(-0.72)"/><polygon class="cls-1" points="262.21 24.06 259.55 25.15 259.55 34.61 262.21 35.7 262.21 24.06"/><path class="cls-1" d="M274,21c-.9.14-1.79.31-2.66.49V38.25c.87.18,1.76.35,2.66.49Z" transform="translate(-0.72)"/><path class="cls-1" d="M257.42,26.13a19.55,19.55,0,0,1-2.65.43V33.2a19.55,19.55,0,0,1,2.65.43Z" transform="translate(-0.72)"/><path class="cls-1" d="M279.45,20.36c-.89.07-1.77.16-2.65.26V39.14c.88.1,1.76.19,2.65.26Z" transform="translate(-0.72)"/><path class="cls-1" d="M285,20.13c-.88,0-1.77,0-2.65.06V39.57c.88,0,1.77.06,2.65.06Z" transform="translate(-0.72)"/><path class="cls-1" d="M235.4,24.66a15.4,15.4,0,0,0-2.66.7v9a15.4,15.4,0,0,0,2.66.7Z" transform="translate(-0.72)"/><polygon class="cls-1" points="229.16 26.52 226.51 27.61 226.51 32.15 229.16 33.24 229.16 26.52"/><path class="cls-1" d="M240.9,35.34V24.42a21.28,21.28,0,0,0-2.65-.05v11A21.28,21.28,0,0,0,240.9,35.34Z" transform="translate(-0.72)"/><path class="cls-1" d="M251.92,26.64a20.87,20.87,0,0,1-2.66-.24v7a20.87,20.87,0,0,1,2.66-.24Z" transform="translate(-0.72)"/><path class="cls-1" d="M312.5,25a20.55,20.55,0,0,1-2.66-.35V35.14a20.55,20.55,0,0,1,2.66-.35Z" transform="translate(-0.72)"/><path class="cls-1" d="M318,24.66a22.49,22.49,0,0,1-2.66.32v9.8a22.49,22.49,0,0,1,2.66.32Z" transform="translate(-0.72)"/><path class="cls-1" d="M307,23.77c-.85-.35-1.74-.66-2.65-1V37c.91-.3,1.8-.61,2.65-1Z" transform="translate(-0.72)"/><path class="cls-1" d="M290.47,20.31c-.88-.06-1.77-.11-2.66-.14V39.59c.89,0,1.78-.07,2.66-.14Z" transform="translate(-0.72)"/><path class="cls-1" d="M301.48,22c-.86-.22-1.75-.42-2.65-.6v17c.9-.18,1.79-.38,2.65-.6Z" transform="translate(-0.72)"/><path class="cls-1" d="M268.44,22.18c-.91.25-1.8.51-2.65.8v13.8c.85.29,1.74.55,2.65.8Z" transform="translate(-0.72)"/><path class="cls-1" d="M296,20.9c-.88-.13-1.76-.24-2.66-.34V39.2c.9-.1,1.78-.21,2.66-.34Z" transform="translate(-0.72)"/><polygon class="cls-1" points="223.66 30.97 223.66 28.79 221 29.88 223.66 30.97"/><path class="cls-1" d="M108,17.71c-8.25,0-13.64,6.29-13.64,14.67,0,8,4.89,14.28,13.2,14.28s13.75-5.56,13.75-14.76C121.31,24.15,116.61,17.71,108,17.71Zm-3.79,8.13a3.63,3.63,0,1,1,7.25,0v6.54a3.63,3.63,0,1,1-7.25,0Zm9.17,6.54a5.56,5.56,0,0,1-5,5.53v3h1.83v1h-4.62v-1h1.83v-3a5.57,5.57,0,0,1-5.09-5.53V29.11h1v3.27a4.59,4.59,0,1,0,9.17,0V29.11h1Z" transform="translate(-0.72)"/></g></g></svg>